# xmcd
#
# Track frame offsets:
#	150
#	20745
#	40477
#	62930
#	81217
#	99902
#	120212
#	137435
#	156022
#	171677
#	190447
#	205870
#
# Disc length: 3047 seconds
#
# Revision: 2
# Processed by: cddbd v1.5.2PL0 Copyright (c) Steve Scherf et al.
# Submitted via: EZCDAudioConverter 8.0.2.1
#
DISCID=a40be50c
DTITLE=Ngọc Lan - Mặt Trời Bên Kia Mùa Hạ
DYEAR=1991
DGENRE=World Pop
TTITLE0=Mùa thu ru em
TTITLE1=Đọa đày
TTITLE2=Nỗi niềm
TTITLE3=Đau đớn riêng em
TTITLE4=Mùa đông sắp đến bên thành phố
TTITLE5=Khi anh gần em
TTITLE6=Xin thời gian ngừng trôi
TTITLE7=Tình mãi bên nhau
TTITLE8=Lời thề xưa
TTITLE9=Chiều tưởng nhớ
TTITLE10=Tình ca mùa đông
TTITLE11=Xin dìu nhau đến tình yêu
EXTD=
EXTT0=
EXTT1=
EXTT2=
EXTT3=
EXTT4=
EXTT5=
EXTT6=
EXTT7=
EXTT8=
EXTT9=
EXTT10=
EXTT11=
PLAYORDER=
